# xmcd
#
# Track frame offsets:
#	150
#	11226
#	31184
#	49619
#	61729
#	78244
#	94056
#	113894
#	129250
#	142244
#	153426
#	173376
#	188074
#	205293
#	232833
#	249037
#
# Disc length: 3518 seconds
#
# Revision: 0
# Processed by: cddbd v1.4PL0 Copyright (c) Steve Scherf et al.
# Submitted via: audiograbber 1.80
#
DISCID=bf0dbc10
DTITLE=Trio Chapahalls - Pra Rebolar
DYEAR=1900
DGENRE=
TTITLE0=Introdução
TTITLE1=Pra Rebolar
TTITLE2=Xote da Alegria
TTITLE3=Dormi na Praça
TTITLE4=Por te Amar Assim
TTITLE5=Na base do Cacete
TTITLE6=Pedido Amor
TTITLE7=Sapatilha 37
TTITLE8=Pau na Raspadinha
TTITLE9=Voce e Eu
TTITLE10=Tão só
TTITLE11=Sou Apenas Alguém\Raio de Neon
TTITLE12=Mais uma de Amor
TTITLE13=Folha de Ortiga
TTITLE14=Colo de Menina
TTITLE15=Nois e Jeca Mas Nois e Joia
EXTD=
EXTT0=
EXTT1=
EXTT2=
EXTT3=
EXTT4=
EXTT5=
EXTT6=
EXTT7=
EXTT8=
EXTT9=
EXTT10=
EXTT11=
EXTT12=
EXTT13=
EXTT14=
EXTT15=
PLAYORDER=
